<svg width="201" height="254" viewBox="0 0 201 254" fill="none" xmlns="http://www.w3.org/2000/svg">
<rect opacity="0.75" x="4.5" y="120" width="37" height="6" fill="#FFD700"/>
<path d="M89.2891 55.0078C89.2891 47.5547 88.0234 40.9453 85.4922 35.1797C82.9609 29.3672 79.4688 24.5391 75.0156 20.6953C70.6094 16.8047 65.3594 13.9453 59.2656 12.1172C53.2188 10.2422 46.6797 9.51562 39.6484 9.9375V100.57C44.1484 100.711 48.5078 100.312 52.7266 99.375C56.9453 98.4375 60.8828 97.0312 64.5391 95.1562C68.2422 93.2344 71.5938 90.9141 74.5938 88.1953C77.6406 85.4766 80.2422 82.4062 82.3984 78.9844C84.6016 75.5625 86.2891 71.8359 87.4609 67.8047C88.6797 63.7734 89.2891 59.5078 89.2891 55.0078ZM96.6719 55.0078C96.6719 60.8203 95.8984 66.1641 94.3516 71.0391C92.8516 75.9141 90.7422 80.3203 88.0234 84.2578C85.3047 88.1953 82.0469 91.6406 78.25 94.5938C74.4531 97.5469 70.2578 100.031 65.6641 102.047C61.1172 104.016 56.2656 105.492 51.1094 106.477C45.9531 107.508 40.6328 108.023 35.1484 108.023C30.5547 108.023 26.3828 107.789 22.6328 107.32C18.9297 106.852 15.7188 106.336 13 105.773C10.3281 105.211 8.21875 104.695 6.67188 104.227C5.17188 103.711 4.35156 103.43 4.21094 103.383C3.50781 103.102 2.92188 102.656 2.45312 102.047C1.98438 101.391 1.75 100.688 1.75 99.9375C1.75 98.8594 2.14844 97.9688 2.94531 97.2656C3.74219 96.5625 4.60938 96.2109 5.54688 96.2109C5.78125 96.2109 5.99219 96.2344 6.17969 96.2812C6.36719 96.3281 6.57812 96.3984 6.8125 96.4922C7.42188 96.7266 8.14844 96.9609 8.99219 97.1953C10.3516 97.6172 12.3672 98.1094 15.0391 98.6719V12.5391C11.9453 13.1953 9.57812 13.7578 7.9375 14.2266C6.95312 14.5078 6.08594 14.7656 5.33594 15C5.10156 15.0937 4.89062 15.1641 4.70312 15.2109C4.51562 15.2578 4.30469 15.2812 4.07031 15.2812C2.99219 15.2812 2.125 14.9063 1.46875 14.1562C0.8125 13.3594 0.484375 12.4922 0.484375 11.5547C0.484375 10.7578 0.695312 10.0547 1.11719 9.44531C1.53906 8.78906 2.14844 8.34375 2.94531 8.10938C3.13281 8.0625 4.16406 7.75781 6.03906 7.19531C7.96094 6.58594 10.5156 5.95312 13.7031 5.29688C16.9375 4.59375 20.7109 3.98437 25.0234 3.46875C29.3359 2.90625 33.9766 2.625 38.9453 2.625C47.1953 2.625 54.8359 3.72656 61.8672 5.92969C68.8984 8.08594 74.9922 11.3438 80.1484 15.7031C85.3047 20.0625 89.3359 25.5234 92.2422 32.0859C95.1953 38.6484 96.6719 46.2891 96.6719 55.0078ZM149.828 62.25C149.031 62.25 148.305 62.2734 147.648 62.3203C146.992 62.3672 146.359 62.3906 145.75 62.3906V101.695H149.055C153.555 101.695 157.867 101.391 161.992 100.781C166.117 100.125 169.75 99.0234 172.891 97.4766C176.078 95.9297 178.609 93.8672 180.484 91.2891C182.406 88.7109 183.367 85.4531 183.367 81.5156C183.367 78.6562 182.805 76.1953 181.68 74.1328C180.602 72.0703 179.148 70.3359 177.32 68.9297C175.492 67.4766 173.383 66.3281 170.992 65.4844C168.648 64.5938 166.234 63.9141 163.75 63.4453C161.266 62.9766 158.805 62.6719 156.367 62.5312C153.977 62.3438 151.797 62.25 149.828 62.25ZM193.422 31.5938C193.422 28.2656 192.625 25.3359 191.031 22.8047C189.484 20.2734 187.422 18.0938 184.844 16.2656C182.266 14.4375 179.312 12.9375 175.984 11.7656C172.656 10.5469 169.211 9.60937 165.648 8.95312C162.133 8.25 158.641 7.80469 155.172 7.61719C151.703 7.42969 148.562 7.40625 145.75 7.54688V54.7266C148.281 54.7266 151.211 54.7266 154.539 54.7266C157.867 54.7266 161.289 54.5391 164.805 54.1641C168.367 53.7891 171.859 53.1797 175.281 52.3359C178.703 51.4922 181.75 50.2031 184.422 48.4688C187.094 46.7344 189.25 44.5078 190.891 41.7891C192.578 39.0703 193.422 35.6719 193.422 31.5938ZM200.805 31.5938C200.805 35.3438 200.148 38.7891 198.836 41.9297C197.57 45.0234 195.812 47.7656 193.562 50.1562C191.312 52.5 188.641 54.4453 185.547 55.9922C182.453 57.5391 179.078 58.6172 175.422 59.2266C177.766 60.0703 179.875 61.2188 181.75 62.6719C183.672 64.125 185.289 65.8125 186.602 67.7344C187.961 69.6094 188.992 71.7188 189.695 74.0625C190.445 76.3594 190.82 78.8438 190.82 81.5156C190.82 85.125 190.305 88.2891 189.273 91.0078C188.242 93.6797 186.766 96.0234 184.844 98.0391C182.969 100.008 180.719 101.672 178.094 103.031C175.469 104.344 172.586 105.398 169.445 106.195C166.305 107.039 162.93 107.672 159.32 108.094C155.758 108.562 152.055 108.867 148.211 109.008C141.93 109.055 136.539 108.797 132.039 108.234C127.539 107.719 123.812 107.133 120.859 106.477C117.953 105.82 115.773 105.211 114.32 104.648C112.867 104.039 112.07 103.688 111.93 103.594C110.57 102.938 109.891 101.812 109.891 100.219C109.891 99.2344 110.289 98.3906 111.086 97.6875C111.93 96.9844 112.797 96.6328 113.688 96.6328C113.969 96.6328 114.227 96.6562 114.461 96.7031C114.742 96.75 115 96.8203 115.234 96.9141C115.328 97.0078 115.914 97.2656 116.992 97.6875C118.07 98.1094 119.688 98.5781 121.844 99.0938C121.797 96.375 121.75 92.8359 121.703 88.4766C121.656 84.1172 121.586 79.2891 121.492 73.9922C121.445 68.6484 121.375 63.0469 121.281 57.1875C121.234 51.2812 121.188 45.4688 121.141 39.75C121.094 34.0312 121.047 28.5703 121 23.3672C120.953 18.1641 120.953 13.5938 121 9.65625C119.828 9.89062 118.703 10.1484 117.625 10.4297C116.594 10.7109 115.609 10.9922 114.672 11.2734C114.438 11.2734 114.25 11.2969 114.109 11.3438C113.969 11.3906 113.828 11.4141 113.688 11.4141C112.609 11.4141 111.695 11.0391 110.945 10.2891C110.242 9.49219 109.891 8.625 109.891 7.6875C109.891 6.89063 110.125 6.16406 110.594 5.50781C111.062 4.85156 111.695 4.35938 112.492 4.03125C116.477 2.90625 121.234 1.99219 126.766 1.28906C132.344 0.539062 138.344 0.164062 144.766 0.164062C148.469 0.164062 152.406 0.328125 156.578 0.65625C160.797 0.984375 164.969 1.59375 169.094 2.48438C173.266 3.32812 177.25 4.5 181.047 6C184.891 7.5 188.266 9.42188 191.172 11.7656C194.125 14.0625 196.469 16.8516 198.203 20.1328C199.938 23.3672 200.805 27.1875 200.805 31.5938Z" fill="black"/>
<path d="M28.082 18.1201C28.0749 18.0592 28.0695 17.9966 28.0659 17.9321C28.0623 17.8677 28.0605 17.8014 28.0605 17.7334H27.8618C27.7186 17.7334 27.5485 17.7441 27.3516 17.7656C27.1582 17.7871 26.9577 17.8211 26.75 17.8677C26.5423 17.9142 26.3364 17.9769 26.1323 18.0557C25.9282 18.1309 25.7456 18.224 25.5845 18.335C25.4233 18.4424 25.2926 18.5695 25.1924 18.7163C25.0957 18.8631 25.0474 19.0314 25.0474 19.2212C25.0474 19.3215 25.0706 19.4074 25.1172 19.479C25.1673 19.5506 25.2282 19.6097 25.2998 19.6562C25.375 19.6992 25.4574 19.7314 25.5469 19.7529C25.6364 19.7708 25.7223 19.7798 25.8047 19.7798C26.0589 19.7798 26.2988 19.7314 26.5244 19.6348C26.7536 19.5345 26.9648 19.4056 27.1582 19.248C27.3516 19.0869 27.5252 18.9079 27.6792 18.7109C27.8332 18.514 27.9674 18.3171 28.082 18.1201ZM30.6548 19.9785H30.6333C30.5724 19.9714 30.5098 19.9678 30.4453 19.9678C30.3809 19.9678 30.3182 19.9678 30.2573 19.9678C29.9207 19.9678 29.5967 19.9893 29.2852 20.0322C28.9772 20.0752 28.6675 20.1414 28.356 20.231C28.3452 20.231 28.3345 20.2327 28.3237 20.2363C28.313 20.2399 28.2987 20.2417 28.2808 20.2417C28.1984 20.2417 28.1304 20.2095 28.0767 20.145C28.0265 20.0841 28.0015 20.0215 28.0015 19.957V19.9141C28.0015 19.9069 28.0104 19.8353 28.0283 19.6992C28.0462 19.5596 28.0641 19.3662 28.082 19.1191C27.9281 19.291 27.7633 19.4521 27.5879 19.6025C27.416 19.7493 27.2334 19.8783 27.04 19.9893C26.8503 20.0967 26.6533 20.1808 26.4492 20.2417C26.2451 20.3062 26.0339 20.3384 25.8154 20.3384C25.6436 20.3384 25.4771 20.3115 25.3159 20.2578C25.1548 20.2077 25.0116 20.1343 24.8862 20.0376C24.7645 19.9409 24.666 19.8245 24.5908 19.6885C24.5192 19.5488 24.4834 19.3931 24.4834 19.2212C24.4834 18.9526 24.5407 18.7163 24.6553 18.5122C24.7734 18.3081 24.9274 18.1309 25.1172 17.9805C25.307 17.8265 25.5218 17.6994 25.7617 17.5991C26.0052 17.4953 26.2523 17.4129 26.5029 17.3521C26.7536 17.2876 26.9971 17.2428 27.2334 17.2178C27.4697 17.1891 27.6792 17.1748 27.8618 17.1748H27.9907C27.9907 16.9564 27.9513 16.7433 27.8726 16.5356C27.7974 16.328 27.6899 16.1436 27.5503 15.9824C27.4142 15.8213 27.2513 15.6924 27.0615 15.5957C26.8717 15.4954 26.6623 15.4453 26.4331 15.4453C26.2648 15.4453 26.1001 15.4937 25.939 15.5903C25.7778 15.6834 25.6346 15.8034 25.5093 15.9502C25.384 16.097 25.2819 16.2617 25.2031 16.4443C25.1279 16.627 25.0903 16.8042 25.0903 16.9761C25.0903 17.0477 25.0599 17.1086 24.999 17.1587C24.9417 17.2052 24.8773 17.2285 24.8057 17.2285C24.7269 17.2285 24.6589 17.1999 24.6016 17.1426C24.5443 17.0817 24.5156 17.0155 24.5156 16.9438C24.5156 16.772 24.5461 16.5929 24.6069 16.4067C24.6678 16.217 24.7555 16.0326 24.8701 15.8535C24.9883 15.6709 25.1297 15.499 25.2944 15.3379C25.4627 15.1768 25.6525 15.0353 25.8638 14.9136C26.0786 14.7882 26.3132 14.6898 26.5674 14.6182C26.8216 14.5465 27.092 14.5107 27.3784 14.5107C27.7795 14.5107 28.1214 14.5734 28.4043 14.6987C28.6908 14.8241 28.9289 14.9941 29.1187 15.209C29.312 15.4238 29.4642 15.6727 29.5752 15.9556C29.6862 16.2384 29.7703 16.5374 29.8276 16.8525C29.8849 17.1676 29.9207 17.4881 29.9351 17.814C29.953 18.1398 29.9619 18.4513 29.9619 18.7485C29.9619 18.8989 29.9601 19.0278 29.9565 19.1353C29.953 19.2427 29.9512 19.3322 29.9512 19.4038C30.0049 19.4038 30.0586 19.402 30.1123 19.3984C30.1696 19.3949 30.2251 19.3931 30.2788 19.3931C30.3397 19.3931 30.4023 19.3949 30.4668 19.3984C30.5348 19.402 30.6011 19.4038 30.6655 19.4038C30.7443 19.411 30.807 19.4414 30.8535 19.4951C30.9036 19.5488 30.9287 19.6151 30.9287 19.6938C30.9287 19.769 30.9019 19.8353 30.8481 19.8926C30.798 19.9499 30.7336 19.9785 30.6548 19.9785ZM32.9214 29.6772C32.9214 29.7417 32.8981 29.8008 32.8516 29.8545C32.8086 29.9082 32.7549 29.9404 32.6904 29.9512C32.429 30.0049 32.1569 30.0371 31.874 30.0479C31.7952 30.5599 31.7165 31.0146 31.6377 31.4121C31.5589 31.806 31.4766 32.1605 31.3906 32.4756C31.3083 32.7871 31.2223 33.0682 31.1328 33.3188C31.0433 33.5659 30.9484 33.7969 30.8481 34.0117C30.7479 34.223 30.6423 34.4253 30.5312 34.6187C30.4202 34.812 30.3003 35.0125 30.1714 35.2202C30.1427 35.2596 30.1087 35.2918 30.0693 35.3169C30.0335 35.342 29.9906 35.3545 29.9404 35.3545C29.8903 35.3545 29.8455 35.3438 29.8062 35.3223C29.7703 35.3008 29.7381 35.2739 29.7095 35.2417C29.3514 34.7941 29.056 34.3823 28.8232 34.0063C28.5941 33.6304 28.4168 33.3135 28.2915 33.0557C28.1232 33.4245 27.9513 33.7826 27.7759 34.1299C27.604 34.4772 27.4124 34.8192 27.2012 35.1558C27.1725 35.1951 27.1367 35.2256 27.0938 35.2471C27.0544 35.2721 27.0132 35.2847 26.9702 35.2847C26.8664 35.2847 26.7858 35.2453 26.7285 35.1665C26.4635 34.8013 26.2308 34.4378 26.0303 34.0762C25.8298 33.7145 25.6561 33.3636 25.5093 33.0234C25.3625 32.6833 25.2389 32.361 25.1387 32.0566C25.042 31.7523 24.9614 31.4712 24.897 31.2134C24.8361 30.9556 24.7896 30.73 24.7573 30.5366C24.7251 30.3397 24.7036 30.1803 24.6929 30.0586C24.6105 30.0514 24.5299 30.0461 24.4512 30.0425C24.376 30.0389 24.299 30.0335 24.2202 30.0264C24.1486 30.0156 24.0877 29.9834 24.0376 29.9297C23.991 29.876 23.9678 29.8133 23.9678 29.7417C23.9678 29.6593 23.9982 29.5931 24.0591 29.543C24.1235 29.4928 24.188 29.4678 24.2524 29.4678H24.2739C24.4422 29.4785 24.6141 29.4893 24.7896 29.5C24.9686 29.5072 25.153 29.5107 25.3428 29.5107C25.64 29.5107 25.9372 29.5018 26.2344 29.4839C26.5316 29.4624 26.8091 29.4355 27.0669 29.4033C27.0741 29.4033 27.0794 29.4015 27.083 29.3979C27.0902 29.3944 27.1009 29.3926 27.1152 29.3926C27.1976 29.3926 27.2638 29.423 27.314 29.4839C27.3641 29.5412 27.3892 29.6056 27.3892 29.6772C27.3892 29.7489 27.3659 29.8115 27.3193 29.8652C27.2764 29.9154 27.2191 29.944 27.1475 29.9512C27.0544 29.9691 26.9559 29.9834 26.8521 29.9941C26.7482 30.0049 26.6444 30.0156 26.5405 30.0264C26.5656 30.166 26.6032 30.3504 26.6533 30.5796C26.7035 30.8052 26.7697 31.0594 26.8521 31.3423C26.938 31.6216 27.0436 31.9188 27.1689 32.2339C27.2943 32.549 27.4447 32.8623 27.6201 33.1738C27.7419 32.9053 27.8529 32.6349 27.9531 32.3628C28.0534 32.0871 28.1411 31.8203 28.2163 31.5625C28.2951 31.3011 28.3595 31.0505 28.4097 30.8105C28.4598 30.5671 28.4938 30.3433 28.5117 30.1392C28.5189 30.0568 28.5511 29.9941 28.6084 29.9512C28.6657 29.9082 28.7284 29.8867 28.7964 29.8867C28.8573 29.8867 28.911 29.9046 28.9575 29.9404C29.0076 29.9762 29.0417 30.0246 29.0596 30.0854C29.2422 30.6476 29.4552 31.1901 29.6987 31.7129C29.9458 32.2357 30.2323 32.7513 30.5581 33.2598C30.6261 33.0843 30.6924 32.891 30.7568 32.6797C30.8213 32.4684 30.884 32.2339 30.9448 31.9761C31.0057 31.7147 31.0666 31.4246 31.1274 31.106C31.1883 30.7873 31.251 30.4346 31.3154 30.0479C31.0719 30.0479 30.8302 30.0264 30.5903 29.9834C30.5223 29.9762 30.465 29.9476 30.4185 29.8975C30.3719 29.8438 30.3486 29.7811 30.3486 29.7095C30.3486 29.6307 30.3773 29.5645 30.4346 29.5107C30.4954 29.4535 30.5617 29.4248 30.6333 29.4248C30.6405 29.4248 30.6458 29.4266 30.6494 29.4302C30.6566 29.4338 30.6655 29.4355 30.6763 29.4355C30.8195 29.457 30.9645 29.4731 31.1113 29.4839C31.2581 29.4946 31.4032 29.5 31.5464 29.5C31.9045 29.5 32.2482 29.4678 32.5776 29.4033C32.592 29.4033 32.6027 29.4015 32.6099 29.3979C32.6206 29.3944 32.6296 29.3926 32.6367 29.3926C32.7119 29.3926 32.7782 29.423 32.8354 29.4839C32.8927 29.5412 32.9214 29.6056 32.9214 29.6772ZM29.6235 47.3467C29.6235 47.1712 29.6038 46.994 29.5645 46.8149C29.5251 46.6359 29.4678 46.4622 29.3926 46.2939C29.3174 46.1257 29.2261 45.9681 29.1187 45.8213C29.0112 45.6745 28.8895 45.5474 28.7534 45.4399C28.6209 45.3289 28.4741 45.243 28.313 45.1821C28.1554 45.1177 27.9871 45.0854 27.8081 45.0854C27.6076 45.0854 27.4321 45.1195 27.2817 45.1875C27.1349 45.252 27.006 45.3415 26.895 45.4561C26.784 45.5671 26.6927 45.696 26.6211 45.8428C26.5495 45.9896 26.4922 46.1453 26.4492 46.3101C26.4062 46.4748 26.3758 46.6413 26.3579 46.8096C26.34 46.9779 26.3311 47.139 26.3311 47.293C26.3311 47.4505 26.3382 47.6188 26.3525 47.7979C26.3669 47.9733 26.3919 48.1488 26.4277 48.3242C26.4635 48.4961 26.5119 48.6626 26.5728 48.8237C26.6336 48.9849 26.7124 49.1263 26.8091 49.248C26.9058 49.3698 27.0221 49.4665 27.1582 49.5381C27.2979 49.6097 27.4626 49.6455 27.6523 49.6455C27.9639 49.6455 28.2414 49.5811 28.4849 49.4521C28.7319 49.3197 28.9396 49.146 29.1079 48.9312C29.2762 48.7163 29.4033 48.471 29.4893 48.1953C29.5788 47.9196 29.6235 47.6367 29.6235 47.3467ZM30.1821 47.3467C30.1821 47.7764 30.1051 48.1702 29.9512 48.5283C29.7972 48.8864 29.5895 49.1943 29.3281 49.4521C29.0667 49.7064 28.7606 49.9051 28.4097 50.0483C28.0623 50.1916 27.6953 50.2632 27.3086 50.2632C26.8717 50.2632 26.4761 50.1934 26.1216 50.0537C25.7707 49.9176 25.4699 49.7225 25.2192 49.4683C24.9686 49.214 24.7752 48.9079 24.6392 48.5498C24.5067 48.1917 24.4404 47.7907 24.4404 47.3467C24.4404 46.9242 24.5138 46.5339 24.6606 46.1758C24.8075 45.8177 25.0098 45.5098 25.2676 45.252C25.5254 44.9906 25.828 44.7882 26.1753 44.645C26.5262 44.4982 26.904 44.4248 27.3086 44.4248C27.7311 44.4248 28.1178 44.5036 28.4688 44.6611C28.8232 44.8151 29.1276 45.0264 29.3818 45.2949C29.6361 45.5599 29.833 45.8696 29.9727 46.2241C30.1123 46.5786 30.1821 46.9528 30.1821 47.3467ZM29.6235 62.3467C29.6235 62.1712 29.6038 61.994 29.5645 61.8149C29.5251 61.6359 29.4678 61.4622 29.3926 61.2939C29.3174 61.1257 29.2261 60.9681 29.1187 60.8213C29.0112 60.6745 28.8895 60.5474 28.7534 60.4399C28.6209 60.3289 28.4741 60.243 28.313 60.1821C28.1554 60.1177 27.9871 60.0854 27.8081 60.0854C27.6076 60.0854 27.4321 60.1195 27.2817 60.1875C27.1349 60.252 27.006 60.3415 26.895 60.4561C26.784 60.5671 26.6927 60.696 26.6211 60.8428C26.5495 60.9896 26.4922 61.1453 26.4492 61.3101C26.4062 61.4748 26.3758 61.6413 26.3579 61.8096C26.34 61.9779 26.3311 62.139 26.3311 62.293C26.3311 62.4505 26.3382 62.6188 26.3525 62.7979C26.3669 62.9733 26.3919 63.1488 26.4277 63.3242C26.4635 63.4961 26.5119 63.6626 26.5728 63.8237C26.6336 63.9849 26.7124 64.1263 26.8091 64.248C26.9058 64.3698 27.0221 64.4665 27.1582 64.5381C27.2979 64.6097 27.4626 64.6455 27.6523 64.6455C27.9639 64.6455 28.2414 64.5811 28.4849 64.4521C28.7319 64.3197 28.9396 64.146 29.1079 63.9312C29.2762 63.7163 29.4033 63.471 29.4893 63.1953C29.5788 62.9196 29.6235 62.6367 29.6235 62.3467ZM30.1821 62.3467C30.1821 62.7764 30.1051 63.1702 29.9512 63.5283C29.7972 63.8864 29.5895 64.1943 29.3281 64.4521C29.0667 64.7064 28.7606 64.9051 28.4097 65.0483C28.0623 65.1916 27.6953 65.2632 27.3086 65.2632C26.8717 65.2632 26.4761 65.1934 26.1216 65.0537C25.7707 64.9176 25.4699 64.7225 25.2192 64.4683C24.9686 64.214 24.7752 63.9079 24.6392 63.5498C24.5067 63.1917 24.4404 62.7907 24.4404 62.3467C24.4404 61.9242 24.5138 61.5339 24.6606 61.1758C24.8075 60.8177 25.0098 60.5098 25.2676 60.252C25.5254 59.9906 25.828 59.7882 26.1753 59.645C26.5262 59.4982 26.904 59.4248 27.3086 59.4248C27.7311 59.4248 28.1178 59.5036 28.4688 59.6611C28.8232 59.8151 29.1276 60.0264 29.3818 60.2949C29.6361 60.5599 29.833 60.8696 29.9727 61.2241C30.1123 61.5786 30.1821 61.9528 30.1821 62.3467ZM28.4902 75.9502C28.4365 75.7891 28.356 75.6494 28.2485 75.5312C28.1411 75.4131 28.0176 75.3146 27.8779 75.2358C27.7419 75.1571 27.5951 75.0998 27.4375 75.064C27.2799 75.0246 27.1206 75.0049 26.9595 75.0049C26.716 75.0049 26.4993 75.0443 26.3096 75.123C26.1198 75.1982 25.9533 75.3021 25.8101 75.4346C25.6668 75.5635 25.5433 75.7157 25.4395 75.8911C25.3392 76.063 25.2568 76.2456 25.1924 76.439C25.1279 76.6287 25.0814 76.8239 25.0527 77.0244C25.0241 77.2249 25.0098 77.4183 25.0098 77.6045C25.0133 77.8659 25.0492 78.1183 25.1172 78.3618C25.1888 78.6017 25.2926 78.8166 25.4287 79.0063C25.5684 79.1925 25.7367 79.3429 25.9336 79.4575C26.1341 79.5685 26.3651 79.624 26.6265 79.624C26.8664 79.624 27.0794 79.5685 27.2656 79.4575C27.4518 79.3429 27.6147 79.1997 27.7544 79.0278C27.8976 78.856 28.0176 78.668 28.1143 78.4639C28.2109 78.2562 28.2879 78.0592 28.3452 77.873C28.4025 77.6833 28.4419 77.5168 28.4634 77.3735C28.4884 77.2267 28.4974 77.13 28.4902 77.0835V75.9502ZM31.0522 79.9785H31.0308C30.9412 79.9714 30.8517 79.966 30.7622 79.9624C30.6763 79.9588 30.5921 79.957 30.5098 79.957C30.2806 79.957 30.0658 79.9678 29.8652 79.9893C29.6647 80.0107 29.4893 80.034 29.3389 80.0591C29.1921 80.0877 29.0739 80.1128 28.9844 80.1343C28.8984 80.1558 28.8537 80.1665 28.8501 80.1665C28.8394 80.1737 28.8268 80.1772 28.8125 80.1772C28.7982 80.1772 28.7856 80.1772 28.7749 80.1772C28.6925 80.1772 28.6245 80.1468 28.5708 80.0859C28.5171 80.0286 28.4902 79.9642 28.4902 79.8926V78.9795C28.4079 79.1514 28.3022 79.3107 28.1733 79.4575C28.048 79.6043 27.9066 79.7314 27.749 79.8389C27.5915 79.9463 27.4178 80.0304 27.228 80.0913C27.0418 80.1558 26.8467 80.188 26.6426 80.188C26.2988 80.188 25.9927 80.1182 25.7241 79.9785C25.4556 79.8389 25.2264 79.6527 25.0366 79.4199C24.8504 79.1836 24.7072 78.9097 24.6069 78.5981C24.5067 78.2866 24.4548 77.959 24.4512 77.6152C24.4512 77.3467 24.4727 77.0835 24.5156 76.8257C24.5622 76.5643 24.632 76.3172 24.7251 76.0845C24.8182 75.8481 24.9328 75.6297 25.0688 75.4292C25.2085 75.2287 25.3714 75.0568 25.5576 74.9136C25.7438 74.7668 25.9533 74.6522 26.186 74.5698C26.4188 74.4875 26.6766 74.4463 26.9595 74.4463C27.271 74.4463 27.5557 74.4928 27.8135 74.5859C28.0713 74.679 28.2969 74.8079 28.4902 74.9727V72.8081C28.2682 72.7974 28.0802 72.783 27.9263 72.7651C27.7759 72.7472 27.6917 72.7383 27.6738 72.7383C27.6022 72.7275 27.5413 72.6953 27.4912 72.6416C27.4447 72.5879 27.4214 72.5252 27.4214 72.4536C27.4214 72.3748 27.45 72.3104 27.5073 72.2603C27.5682 72.2065 27.6344 72.1797 27.7061 72.1797H27.7383C27.7419 72.1797 27.783 72.1851 27.8618 72.1958C27.9406 72.203 28.0426 72.2119 28.168 72.2227C28.2969 72.2334 28.4437 72.2441 28.6084 72.2549C28.7731 72.262 28.9414 72.2656 29.1133 72.2656C29.2816 72.2656 29.4463 72.2603 29.6074 72.2495C29.7721 72.2352 29.9225 72.2119 30.0586 72.1797H30.1284C30.2108 72.1797 30.277 72.2083 30.3271 72.2656C30.3773 72.3193 30.4023 72.382 30.4023 72.4536V79.3931H30.5098C30.6029 79.3931 30.696 79.3949 30.7891 79.3984C30.8857 79.3984 30.9806 79.4038 31.0737 79.4146C31.1525 79.4217 31.2152 79.4521 31.2617 79.5059C31.3118 79.5596 31.3369 79.6222 31.3369 79.6938C31.3369 79.7798 31.3047 79.8496 31.2402 79.9033C31.1794 79.9535 31.1167 79.9785 31.0522 79.9785ZM27.894 95.1343C27.8869 95.1343 27.8779 95.1325 27.8672 95.1289C27.86 95.1253 27.8511 95.1235 27.8403 95.1235C27.5503 95.0662 27.2746 95.0251 27.0132 95C26.7518 94.9714 26.4922 94.957 26.2344 94.957C25.973 94.957 25.7134 94.9714 25.4556 95C25.1978 95.0251 24.9256 95.0662 24.6392 95.1235C24.6284 95.1235 24.6195 95.1253 24.6123 95.1289C24.6051 95.1325 24.5962 95.1343 24.5854 95.1343C24.5031 95.1343 24.4351 95.1038 24.3813 95.043C24.3312 94.9821 24.3062 94.9159 24.3062 94.8442C24.3062 94.7798 24.3258 94.7207 24.3652 94.667C24.4082 94.6133 24.4619 94.5811 24.5264 94.5703C24.6517 94.5417 24.777 94.5202 24.9023 94.5059C25.0312 94.488 25.1566 94.4701 25.2783 94.4521V90.3379C25.0527 90.3271 24.863 90.3128 24.709 90.2949C24.555 90.277 24.4691 90.2681 24.4512 90.2681C24.3796 90.2573 24.3205 90.2251 24.2739 90.1714C24.231 90.1177 24.2095 90.055 24.2095 89.9834C24.2095 89.8939 24.2417 89.8258 24.3062 89.7793C24.3706 89.7327 24.4333 89.7095 24.4941 89.7095H24.5264C24.5299 89.7095 24.5711 89.7148 24.6499 89.7256C24.7287 89.7327 24.8307 89.7417 24.9561 89.7524C25.085 89.7632 25.23 89.7739 25.3911 89.7847C25.5522 89.7918 25.7188 89.7954 25.8906 89.7954C26.0625 89.7954 26.2308 89.79 26.3955 89.7793C26.5602 89.765 26.7106 89.7417 26.8467 89.7095H26.9058C26.9881 89.7095 27.0562 89.7381 27.1099 89.7954C27.1636 89.8491 27.1904 89.9118 27.1904 89.9834L27.1797 94.4521C27.305 94.4701 27.4303 94.488 27.5557 94.5059C27.6846 94.5202 27.8153 94.5417 27.9478 94.5703C28.0158 94.5811 28.0713 94.6133 28.1143 94.667C28.1572 94.7207 28.1787 94.7798 28.1787 94.8442C28.1787 94.9266 28.1483 94.9946 28.0874 95.0483C28.0265 95.1056 27.9621 95.1343 27.894 95.1343ZM27.1152 88.0713C27.1152 88.2038 27.0902 88.3291 27.04 88.4473C26.9899 88.5618 26.9201 88.6621 26.8306 88.748C26.7446 88.834 26.6426 88.902 26.5244 88.9521C26.4098 89.0023 26.2863 89.0273 26.1538 89.0273C26.0213 89.0273 25.896 89.0023 25.7778 88.9521C25.6632 88.902 25.563 88.834 25.4771 88.748C25.3911 88.6621 25.3231 88.5618 25.2729 88.4473C25.2228 88.3291 25.1978 88.2038 25.1978 88.0713C25.1978 87.9388 25.2228 87.8153 25.2729 87.7007C25.3231 87.5825 25.3911 87.4805 25.4771 87.3945C25.563 87.3086 25.6632 87.2406 25.7778 87.1904C25.896 87.1403 26.0213 87.1152 26.1538 87.1152C26.2863 87.1152 26.4098 87.1403 26.5244 87.1904C26.6426 87.2406 26.7446 87.3086 26.8306 87.3945C26.9201 87.4805 26.9899 87.5825 27.04 87.7007C27.0902 87.8153 27.1152 87.9388 27.1152 88.0713Z" fill="white"/>
<path d="M136.624 21.3467C136.624 21.1712 136.604 20.994 136.564 20.8149C136.525 20.6359 136.468 20.4622 136.393 20.2939C136.317 20.1257 136.226 19.9681 136.119 19.8213C136.011 19.6745 135.889 19.5474 135.753 19.4399C135.621 19.3289 135.474 19.243 135.313 19.1821C135.155 19.1177 134.987 19.0854 134.808 19.0854C134.608 19.0854 134.432 19.1195 134.282 19.1875C134.135 19.252 134.006 19.3415 133.895 19.4561C133.784 19.5671 133.693 19.696 133.621 19.8428C133.549 19.9896 133.492 20.1453 133.449 20.3101C133.406 20.4748 133.376 20.6413 133.358 20.8096C133.34 20.9779 133.331 21.139 133.331 21.293C133.331 21.4505 133.338 21.6188 133.353 21.7979C133.367 21.9733 133.392 22.1488 133.428 22.3242C133.464 22.4961 133.512 22.6626 133.573 22.8237C133.634 22.9849 133.712 23.1263 133.809 23.248C133.906 23.3698 134.022 23.4665 134.158 23.5381C134.298 23.6097 134.463 23.6455 134.652 23.6455C134.964 23.6455 135.241 23.5811 135.485 23.4521C135.732 23.3197 135.94 23.146 136.108 22.9312C136.276 22.7163 136.403 22.471 136.489 22.1953C136.579 21.9196 136.624 21.6367 136.624 21.3467ZM137.182 21.3467C137.182 21.7764 137.105 22.1702 136.951 22.5283C136.797 22.8864 136.59 23.1943 136.328 23.4521C136.067 23.7064 135.761 23.9051 135.41 24.0483C135.062 24.1916 134.695 24.2632 134.309 24.2632C133.872 24.2632 133.476 24.1934 133.122 24.0537C132.771 23.9176 132.47 23.7225 132.219 23.4683C131.969 23.214 131.775 22.9079 131.639 22.5498C131.507 22.1917 131.44 21.7907 131.44 21.3467C131.44 20.9242 131.514 20.5339 131.661 20.1758C131.807 19.8177 132.01 19.5098 132.268 19.252C132.525 18.9906 132.828 18.7882 133.175 18.645C133.526 18.4982 133.904 18.4248 134.309 18.4248C134.731 18.4248 135.118 18.5036 135.469 18.6611C135.823 18.8151 136.128 19.0264 136.382 19.2949C136.636 19.5599 136.833 19.8696 136.973 20.2241C137.112 20.5786 137.182 20.9528 137.182 21.3467ZM137.961 44.9141C137.947 44.9141 137.936 44.9105 137.929 44.9033C137.803 44.8854 137.68 44.8729 137.558 44.8657C137.436 44.8586 137.315 44.855 137.193 44.855C137.01 44.855 136.828 44.8639 136.645 44.8818C136.466 44.8997 136.285 44.9248 136.103 44.957C136.095 44.9642 136.088 44.9678 136.081 44.9678C136.074 44.9678 136.067 44.9678 136.06 44.9678C135.977 44.9678 135.909 44.9391 135.855 44.8818C135.802 44.821 135.775 44.7547 135.775 44.6831C135.775 44.6151 135.796 44.556 135.839 44.5059C135.882 44.4521 135.938 44.4181 136.006 44.4038C136.26 44.3501 136.516 44.3179 136.774 44.3071C136.971 43.4012 137.069 42.6278 137.069 41.9868C137.069 41.7075 137.048 41.4461 137.005 41.2026C136.965 40.9556 136.892 40.7407 136.785 40.5581C136.681 40.3755 136.538 40.2305 136.355 40.123C136.172 40.0156 135.938 39.9619 135.651 39.9619C135.49 39.9619 135.336 39.9924 135.189 40.0532C135.046 40.1141 134.912 40.1965 134.787 40.3003C134.665 40.4006 134.554 40.5187 134.454 40.6548C134.353 40.7909 134.267 40.9341 134.196 41.0845C134.128 41.2313 134.074 41.3817 134.035 41.5356C133.999 41.6896 133.981 41.8364 133.981 41.9761L133.97 44.3716C134.096 44.3823 134.221 44.3984 134.346 44.4199C134.475 44.4414 134.606 44.4665 134.738 44.4951C134.806 44.5059 134.862 44.5381 134.905 44.5918C134.948 44.6419 134.969 44.701 134.969 44.769C134.969 44.8514 134.939 44.9176 134.878 44.9678C134.821 45.0179 134.756 45.043 134.685 45.043H134.631C134.341 44.9893 134.065 44.9481 133.804 44.9194C133.542 44.8908 133.283 44.8765 133.025 44.8765C132.771 44.8765 132.513 44.8908 132.251 44.9194C131.99 44.9481 131.716 44.9893 131.43 45.043H131.376C131.294 45.043 131.226 45.0161 131.172 44.9624C131.122 44.9051 131.097 44.8407 131.097 44.769C131.097 44.701 131.116 44.6419 131.156 44.5918C131.199 44.5381 131.252 44.5059 131.317 44.4951C131.442 44.4665 131.568 44.4432 131.693 44.4253C131.822 44.4074 131.947 44.3895 132.069 44.3716V37.9692C131.843 37.9585 131.653 37.946 131.5 37.9316C131.346 37.9137 131.26 37.9048 131.242 37.9048C131.17 37.894 131.111 37.8618 131.064 37.8081C131.021 37.7544 131 37.6917 131 37.6201C131 37.5306 131.032 37.4626 131.097 37.416C131.161 37.3695 131.224 37.3462 131.285 37.3462H131.317C131.32 37.3462 131.362 37.3516 131.44 37.3623C131.519 37.3695 131.621 37.3784 131.747 37.3892C131.875 37.3999 132.021 37.4106 132.182 37.4214C132.343 37.4285 132.509 37.4321 132.681 37.4321C132.853 37.4321 133.021 37.4268 133.186 37.416C133.351 37.4017 133.503 37.3784 133.643 37.3462H133.696C133.779 37.3462 133.847 37.3748 133.9 37.4321C133.954 37.4858 133.981 37.5485 133.981 37.6201V40.3486C134.185 40.0335 134.427 39.7972 134.706 39.6396C134.989 39.4821 135.304 39.4033 135.651 39.4033C136.024 39.4033 136.335 39.4714 136.586 39.6074C136.84 39.7435 137.044 39.9279 137.198 40.1606C137.356 40.3934 137.467 40.6691 137.531 40.9878C137.599 41.3029 137.633 41.6395 137.633 41.9976C137.633 42.6313 137.538 43.3976 137.349 44.2964C137.46 44.2964 137.569 44.3018 137.676 44.3125C137.787 44.3197 137.895 44.3322 137.999 44.3501C138.07 44.3573 138.129 44.3877 138.176 44.4414C138.226 44.4915 138.251 44.5524 138.251 44.624C138.251 44.7028 138.221 44.7708 138.16 44.8281C138.099 44.8854 138.033 44.9141 137.961 44.9141ZM136.312 63.3359C136.18 63.3359 136.054 63.3109 135.936 63.2607C135.821 63.2106 135.721 63.1426 135.635 63.0566C135.549 62.9707 135.481 62.8704 135.431 62.7559C135.381 62.6377 135.356 62.5124 135.356 62.3799C135.356 62.2474 135.381 62.1239 135.431 62.0093C135.481 61.8911 135.549 61.7891 135.635 61.7031C135.721 61.6136 135.821 61.5438 135.936 61.4937C136.054 61.4399 136.18 61.4131 136.312 61.4131C136.33 61.4131 136.346 61.4149 136.36 61.4185C136.378 61.422 136.396 61.4238 136.414 61.4238C136.321 61.3522 136.212 61.2985 136.086 61.2627C135.965 61.2233 135.823 61.2036 135.662 61.2036C135.458 61.2036 135.281 61.2466 135.13 61.3325C134.98 61.4149 134.851 61.5205 134.744 61.6494C134.64 61.7747 134.556 61.9126 134.491 62.063C134.427 62.2098 134.375 62.3494 134.335 62.4819C134.3 62.6108 134.275 62.7218 134.26 62.8149C134.25 62.908 134.244 62.9618 134.244 62.9761L134.233 65.3608C134.359 65.3716 134.484 65.3877 134.609 65.4092C134.738 65.4307 134.869 65.4521 135.001 65.4736C135.069 65.4915 135.125 65.5273 135.168 65.5811C135.211 65.6312 135.232 65.6903 135.232 65.7583C135.232 65.8371 135.202 65.9033 135.141 65.957C135.08 66.0072 135.016 66.0322 134.948 66.0322H134.894C134.604 65.9785 134.328 65.9373 134.067 65.9087C133.806 65.88 133.546 65.8657 133.288 65.8657C133.03 65.8657 132.772 65.88 132.515 65.9087C132.257 65.9373 131.983 65.9785 131.693 66.0322H131.639C131.557 66.0322 131.491 66.0054 131.44 65.9517C131.39 65.8944 131.365 65.8299 131.365 65.7583C131.365 65.6903 131.385 65.6312 131.424 65.5811C131.464 65.5273 131.517 65.4915 131.585 65.4736C131.711 65.4521 131.836 65.4307 131.961 65.4092C132.087 65.3877 132.21 65.3716 132.332 65.3608V61.3594C132.106 61.3486 131.917 61.3343 131.763 61.3164C131.609 61.2985 131.523 61.286 131.505 61.2788C131.433 61.2716 131.374 61.243 131.328 61.1929C131.285 61.1392 131.263 61.0765 131.263 61.0049C131.263 60.9154 131.294 60.8455 131.354 60.7954C131.419 60.7453 131.483 60.7202 131.548 60.7202H131.585C131.589 60.7238 131.63 60.731 131.709 60.7417C131.788 60.7489 131.89 60.7578 132.015 60.7686C132.14 60.7793 132.284 60.7882 132.445 60.7954C132.61 60.8026 132.776 60.8062 132.944 60.8062C133.116 60.8062 133.285 60.8008 133.449 60.79C133.614 60.7793 133.766 60.7596 133.906 60.731C133.913 60.7238 133.931 60.7202 133.959 60.7202C134.042 60.7202 134.11 60.7507 134.164 60.8115C134.217 60.8688 134.244 60.9333 134.244 61.0049V61.3916C134.398 61.1768 134.591 60.9995 134.824 60.8599C135.061 60.7166 135.34 60.645 135.662 60.645C135.906 60.6522 136.128 60.6951 136.328 60.7739C136.529 60.8491 136.701 60.9548 136.844 61.0908C136.991 61.2233 137.103 61.3844 137.182 61.5742C137.264 61.7604 137.306 61.9699 137.306 62.2026C137.306 62.3494 137.282 62.4909 137.236 62.627C137.189 62.763 137.123 62.8848 137.037 62.9922C136.951 63.096 136.846 63.1802 136.72 63.2446C136.598 63.3055 136.462 63.3359 136.312 63.3359ZM135.082 85.1201C135.075 85.0592 135.069 84.9966 135.066 84.9321C135.062 84.8677 135.061 84.8014 135.061 84.7334H134.862C134.719 84.7334 134.549 84.7441 134.352 84.7656C134.158 84.7871 133.958 84.8211 133.75 84.8677C133.542 84.9142 133.336 84.9769 133.132 85.0557C132.928 85.1309 132.746 85.224 132.584 85.335C132.423 85.4424 132.293 85.5695 132.192 85.7163C132.096 85.8631 132.047 86.0314 132.047 86.2212C132.047 86.3215 132.071 86.4074 132.117 86.479C132.167 86.5506 132.228 86.6097 132.3 86.6562C132.375 86.6992 132.457 86.7314 132.547 86.7529C132.636 86.7708 132.722 86.7798 132.805 86.7798C133.059 86.7798 133.299 86.7314 133.524 86.6348C133.754 86.5345 133.965 86.4056 134.158 86.248C134.352 86.0869 134.525 85.9079 134.679 85.7109C134.833 85.514 134.967 85.3171 135.082 85.1201ZM137.655 86.9785H137.633C137.572 86.9714 137.51 86.9678 137.445 86.9678C137.381 86.9678 137.318 86.9678 137.257 86.9678C136.921 86.9678 136.597 86.9893 136.285 87.0322C135.977 87.0752 135.667 87.1414 135.356 87.231C135.345 87.231 135.334 87.2327 135.324 87.2363C135.313 87.2399 135.299 87.2417 135.281 87.2417C135.198 87.2417 135.13 87.2095 135.077 87.145C135.027 87.0841 135.001 87.0215 135.001 86.957V86.9141C135.001 86.9069 135.01 86.8353 135.028 86.6992C135.046 86.5596 135.064 86.3662 135.082 86.1191C134.928 86.291 134.763 86.4521 134.588 86.6025C134.416 86.7493 134.233 86.8783 134.04 86.9893C133.85 87.0967 133.653 87.1808 133.449 87.2417C133.245 87.3062 133.034 87.3384 132.815 87.3384C132.644 87.3384 132.477 87.3115 132.316 87.2578C132.155 87.2077 132.012 87.1343 131.886 87.0376C131.764 86.9409 131.666 86.8245 131.591 86.6885C131.519 86.5488 131.483 86.3931 131.483 86.2212C131.483 85.9526 131.541 85.7163 131.655 85.5122C131.773 85.3081 131.927 85.1309 132.117 84.9805C132.307 84.8265 132.522 84.6994 132.762 84.5991C133.005 84.4953 133.252 84.4129 133.503 84.3521C133.754 84.2876 133.997 84.2428 134.233 84.2178C134.47 84.1891 134.679 84.1748 134.862 84.1748H134.991C134.991 83.9564 134.951 83.7433 134.873 83.5356C134.797 83.328 134.69 83.1436 134.55 82.9824C134.414 82.8213 134.251 82.6924 134.062 82.5957C133.872 82.4954 133.662 82.4453 133.433 82.4453C133.265 82.4453 133.1 82.4937 132.939 82.5903C132.778 82.6834 132.635 82.8034 132.509 82.9502C132.384 83.097 132.282 83.2617 132.203 83.4443C132.128 83.627 132.09 83.8042 132.09 83.9761C132.09 84.0477 132.06 84.1086 131.999 84.1587C131.942 84.2052 131.877 84.2285 131.806 84.2285C131.727 84.2285 131.659 84.1999 131.602 84.1426C131.544 84.0817 131.516 84.0155 131.516 83.9438C131.516 83.772 131.546 83.5929 131.607 83.4067C131.668 83.217 131.756 83.0326 131.87 82.8535C131.988 82.6709 132.13 82.499 132.294 82.3379C132.463 82.1768 132.653 82.0353 132.864 81.9136C133.079 81.7882 133.313 81.6898 133.567 81.6182C133.822 81.5465 134.092 81.5107 134.378 81.5107C134.779 81.5107 135.121 81.5734 135.404 81.6987C135.691 81.8241 135.929 81.9941 136.119 82.209C136.312 82.4238 136.464 82.6727 136.575 82.9556C136.686 83.2384 136.77 83.5374 136.828 83.8525C136.885 84.1676 136.921 84.4881 136.935 84.814C136.953 85.1398 136.962 85.4513 136.962 85.7485C136.962 85.8989 136.96 86.0278 136.957 86.1353C136.953 86.2427 136.951 86.3322 136.951 86.4038C137.005 86.4038 137.059 86.402 137.112 86.3984C137.17 86.3949 137.225 86.3931 137.279 86.3931C137.34 86.3931 137.402 86.3949 137.467 86.3984C137.535 86.402 137.601 86.4038 137.666 86.4038C137.744 86.411 137.807 86.4414 137.854 86.4951C137.904 86.5488 137.929 86.6151 137.929 86.6938C137.929 86.769 137.902 86.8353 137.848 86.8926C137.798 86.9499 137.734 86.9785 137.655 86.9785Z" fill="white"/>
<path d="M41.9307 137.001C41.9307 137.062 41.9408 137.142 41.9609 137.243C41.9811 137.324 41.9912 137.415 41.9912 137.516C41.9912 137.939 41.8197 138.313 41.4766 138.636C41.1536 138.959 40.7904 139.12 40.3867 139.12C40.0638 139.12 39.7611 139.019 39.4785 138.817C39.2161 138.616 39.0244 138.343 38.9033 138C38.641 137.233 38.3887 136.416 38.1465 135.548C37.9043 134.66 37.6823 133.792 37.4805 132.944C37.2988 132.097 37.1273 131.299 36.9658 130.553C36.8044 129.806 36.6833 129.17 36.6025 128.646C35.4521 128.706 34.1403 128.757 32.667 128.797C31.1937 128.817 29.6094 128.827 27.9141 128.827L26.915 166.215C28.57 166.275 30.1644 166.396 31.6982 166.578C32.1423 166.618 32.4854 166.79 32.7275 167.093C32.9899 167.375 33.1211 167.718 33.1211 168.122C33.1211 168.627 32.9495 169.02 32.6064 169.303C32.2835 169.605 31.9404 169.757 31.5771 169.757H31.3955C29.7607 169.555 28.1462 169.414 26.5518 169.333C24.9574 169.272 23.363 169.242 21.7686 169.242C20.154 169.242 18.5697 169.272 17.0156 169.333C15.4616 169.414 13.9076 169.555 12.3535 169.757H12.1719C11.7279 169.757 11.3444 169.585 11.0215 169.242C10.7188 168.899 10.5674 168.526 10.5674 168.122C10.5674 167.718 10.6986 167.375 10.9609 167.093C11.2435 166.79 11.5866 166.618 11.9902 166.578C13.5443 166.396 15.068 166.275 16.5615 166.215L17.2578 128.646C15.5423 128.585 13.9277 128.514 12.4141 128.434C10.9206 128.333 9.57845 128.232 8.3877 128.131C8.2666 128.676 8.11523 129.342 7.93359 130.129C7.77214 130.916 7.5804 131.754 7.3584 132.642C7.15658 133.53 6.94466 134.438 6.72266 135.366C6.50065 136.274 6.26855 137.132 6.02637 137.939C5.92546 138.283 5.73372 138.565 5.45117 138.787C5.1888 139.009 4.88607 139.12 4.54297 139.12C4.07878 139.12 3.69531 138.959 3.39258 138.636C3.08984 138.293 2.93848 137.919 2.93848 137.516C2.93848 137.455 2.93848 137.384 2.93848 137.304C2.93848 137.203 2.95866 137.122 2.99902 137.062C3.30176 135.992 3.60449 134.821 3.90723 133.55C4.20996 132.278 4.48242 131.088 4.72461 129.978C4.98698 128.868 5.19889 127.939 5.36035 127.192C5.52181 126.446 5.60254 126.062 5.60254 126.042C5.70345 125.659 5.88509 125.356 6.14746 125.134C6.43001 124.912 6.76302 124.801 7.14648 124.801H7.38867C8.43815 124.942 9.70964 125.063 11.2031 125.164C12.7168 125.265 14.3415 125.356 16.0771 125.437C17.833 125.497 19.6494 125.548 21.5264 125.588C23.4033 125.628 25.2399 125.648 27.0361 125.648C29.236 125.648 31.2643 125.628 33.1211 125.588C34.9779 125.527 36.5319 125.447 37.7832 125.346H37.9043C38.2676 125.346 38.6006 125.477 38.9033 125.739C39.2061 125.981 39.3877 126.284 39.4482 126.647C39.4482 126.668 39.4785 126.839 39.5391 127.162C39.5996 127.485 39.6803 127.919 39.7812 128.464C39.8822 129.009 40.0033 129.634 40.1445 130.341C40.306 131.047 40.4775 131.784 40.6592 132.551C40.8408 133.298 41.0326 134.064 41.2344 134.852C41.4564 135.618 41.6885 136.335 41.9307 137.001ZM73.0518 154.045C73.0518 153.056 72.9408 152.057 72.7188 151.048C72.4967 150.039 72.1738 149.06 71.75 148.111C71.3262 147.163 70.8115 146.275 70.2061 145.447C69.6006 144.62 68.9144 143.903 68.1475 143.298C67.4007 142.672 66.5732 142.188 65.665 141.845C64.777 141.481 63.8285 141.3 62.8193 141.3C61.6891 141.3 60.7002 141.492 59.8525 141.875C59.0251 142.238 58.2985 142.743 57.6729 143.389C57.0472 144.014 56.5326 144.741 56.1289 145.568C55.7253 146.396 55.4023 147.274 55.1602 148.202C54.918 149.131 54.7464 150.069 54.6455 151.018C54.5446 151.966 54.4941 152.874 54.4941 153.742C54.4941 154.63 54.5345 155.579 54.6152 156.588C54.696 157.577 54.8372 158.566 55.0391 159.555C55.2409 160.523 55.5133 161.462 55.8564 162.37C56.1995 163.278 56.6436 164.076 57.1885 164.762C57.7334 165.448 58.3893 165.993 59.1562 166.396C59.9434 166.8 60.8717 167.002 61.9414 167.002C63.6973 167.002 65.2614 166.639 66.6338 165.912C68.0264 165.165 69.1969 164.187 70.1455 162.976C71.0941 161.765 71.8105 160.382 72.2949 158.828C72.7995 157.274 73.0518 155.68 73.0518 154.045ZM76.2002 154.045C76.2002 156.467 75.7663 158.687 74.8984 160.705C74.0306 162.723 72.86 164.459 71.3867 165.912C69.9134 167.345 68.1878 168.465 66.21 169.272C64.2523 170.08 62.1836 170.483 60.0039 170.483C57.5417 170.483 55.3115 170.09 53.3135 169.303C51.3356 168.536 49.6403 167.436 48.2275 166.003C46.8148 164.57 45.7249 162.844 44.958 160.826C44.2113 158.808 43.8379 156.548 43.8379 154.045C43.8379 151.663 44.2516 149.464 45.0791 147.445C45.9066 145.427 47.0469 143.691 48.5 142.238C49.9531 140.765 51.6585 139.625 53.6162 138.817C55.5941 137.99 57.7233 137.576 60.0039 137.576C62.3854 137.576 64.5651 138.02 66.543 138.908C68.541 139.776 70.2565 140.967 71.6895 142.48C73.1224 143.974 74.2324 145.72 75.0195 147.718C75.8066 149.716 76.2002 151.825 76.2002 154.045ZM114.859 152.743C114.839 151.351 114.627 149.978 114.224 148.626C113.82 147.254 113.225 146.033 112.438 144.963C111.671 143.893 110.722 143.025 109.592 142.359C108.482 141.693 107.2 141.36 105.747 141.36C104.677 141.36 103.668 141.592 102.72 142.057C101.791 142.521 100.934 143.136 100.146 143.903C99.3796 144.67 98.6934 145.548 98.0879 146.537C97.4824 147.526 96.9678 148.555 96.5439 149.625C96.1403 150.695 95.8275 151.764 95.6055 152.834C95.3835 153.904 95.2725 154.893 95.2725 155.801V161.946C95.5146 162.895 95.9385 163.712 96.5439 164.398C97.1494 165.064 97.8558 165.63 98.6631 166.094C99.4704 166.538 100.338 166.871 101.267 167.093C102.195 167.295 103.093 167.396 103.961 167.396C105.293 167.396 106.484 167.174 107.533 166.729C108.603 166.285 109.541 165.69 110.349 164.943C111.156 164.197 111.842 163.339 112.407 162.37C112.972 161.381 113.437 160.342 113.8 159.252C114.163 158.162 114.425 157.062 114.587 155.952C114.769 154.822 114.859 153.752 114.859 152.743ZM118.099 152.743C118.099 154.196 117.957 155.649 117.675 157.103C117.412 158.535 117.009 159.918 116.464 161.25C115.939 162.562 115.283 163.793 114.496 164.943C113.709 166.074 112.791 167.062 111.741 167.91C110.692 168.738 109.511 169.394 108.199 169.878C106.908 170.362 105.495 170.604 103.961 170.604C102.326 170.604 100.752 170.342 99.2383 169.817C97.7448 169.313 96.4229 168.566 95.2725 167.577V181.836C95.7367 181.876 96.2109 181.917 96.6953 181.957C97.1797 182.018 97.654 182.078 98.1182 182.139C98.5218 182.199 98.8447 182.381 99.0869 182.684C99.3493 182.986 99.4805 183.319 99.4805 183.683C99.4805 184.207 99.2988 184.611 98.9355 184.894C98.5723 185.176 98.2191 185.317 97.876 185.317H97.6943C96.5036 185.156 95.2826 185.015 94.0312 184.894C92.7799 184.793 91.458 184.742 90.0654 184.742C88.7939 184.742 87.4619 184.793 86.0693 184.894C84.6969 185.015 83.2135 185.237 81.6191 185.56H81.377C80.9128 185.56 80.5293 185.398 80.2266 185.075C79.9238 184.772 79.7725 184.419 79.7725 184.016C79.7725 183.632 79.8835 183.289 80.1055 182.986C80.3477 182.704 80.6706 182.522 81.0742 182.441C82.2852 182.199 83.4255 182.018 84.4951 181.896V142.026C83.4053 141.966 82.5072 141.895 81.8008 141.814C81.0944 141.714 80.7109 141.663 80.6504 141.663C80.2467 141.603 79.9137 141.421 79.6514 141.118C79.389 140.815 79.2578 140.482 79.2578 140.119C79.2578 139.594 79.4395 139.191 79.8027 138.908C80.1862 138.626 80.5495 138.484 80.8926 138.484H81.0742C81.0944 138.484 81.3063 138.515 81.71 138.575C82.1136 138.616 82.6383 138.676 83.2842 138.757C83.9502 138.817 84.707 138.878 85.5547 138.938C86.4023 138.979 87.2803 138.999 88.1885 138.999C89.0765 138.999 89.9645 138.969 90.8525 138.908C91.7406 138.827 92.568 138.706 93.335 138.545C93.4157 138.505 93.5267 138.484 93.668 138.484C94.1322 138.484 94.5156 138.656 94.8184 138.999C95.1211 139.342 95.2725 139.715 95.2725 140.119V145.054C96.4834 142.935 97.9769 141.259 99.7529 140.028C101.549 138.797 103.547 138.182 105.747 138.182C107.725 138.182 109.471 138.616 110.984 139.483C112.498 140.351 113.77 141.481 114.799 142.874C115.848 144.267 116.646 145.831 117.19 147.566C117.735 149.302 118.038 151.028 118.099 152.743ZM142.499 169.757C142.459 169.757 142.408 169.747 142.348 169.727C142.307 169.706 142.257 169.696 142.196 169.696C140.562 169.373 139.007 169.141 137.534 169C136.061 168.839 134.598 168.758 133.145 168.758C131.671 168.758 130.208 168.839 128.755 169C127.302 169.141 125.768 169.373 124.153 169.696C124.093 169.696 124.042 169.706 124.002 169.727C123.962 169.747 123.911 169.757 123.851 169.757C123.386 169.757 123.003 169.585 122.7 169.242C122.418 168.899 122.276 168.526 122.276 168.122C122.276 167.759 122.387 167.426 122.609 167.123C122.852 166.82 123.154 166.639 123.518 166.578C124.224 166.417 124.93 166.296 125.637 166.215C126.363 166.114 127.07 166.013 127.756 165.912V142.723C126.484 142.662 125.415 142.581 124.547 142.48C123.679 142.38 123.195 142.329 123.094 142.329C122.69 142.269 122.357 142.087 122.095 141.784C121.853 141.481 121.731 141.128 121.731 140.725C121.731 140.22 121.913 139.837 122.276 139.574C122.64 139.312 122.993 139.181 123.336 139.181H123.518C123.538 139.181 123.77 139.211 124.214 139.271C124.658 139.312 125.233 139.362 125.939 139.423C126.666 139.483 127.483 139.544 128.392 139.604C129.3 139.645 130.238 139.665 131.207 139.665C132.176 139.665 133.124 139.635 134.053 139.574C134.981 139.493 135.829 139.362 136.596 139.181H136.929C137.393 139.181 137.776 139.342 138.079 139.665C138.382 139.968 138.533 140.321 138.533 140.725L138.473 165.912C139.179 166.013 139.885 166.114 140.592 166.215C141.318 166.296 142.055 166.417 142.802 166.578C143.185 166.639 143.498 166.82 143.74 167.123C143.982 167.426 144.104 167.759 144.104 168.122C144.104 168.586 143.932 168.97 143.589 169.272C143.246 169.595 142.882 169.757 142.499 169.757ZM138.109 129.947C138.109 130.694 137.968 131.4 137.686 132.066C137.403 132.712 137.009 133.277 136.505 133.762C136.021 134.246 135.445 134.63 134.779 134.912C134.133 135.195 133.437 135.336 132.69 135.336C131.944 135.336 131.237 135.195 130.571 134.912C129.925 134.63 129.36 134.246 128.876 133.762C128.392 133.277 128.008 132.712 127.726 132.066C127.443 131.4 127.302 130.694 127.302 129.947C127.302 129.201 127.443 128.504 127.726 127.858C128.008 127.192 128.392 126.617 128.876 126.133C129.36 125.648 129.925 125.265 130.571 124.982C131.237 124.7 131.944 124.559 132.69 124.559C133.437 124.559 134.133 124.7 134.779 124.982C135.445 125.265 136.021 125.648 136.505 126.133C137.009 126.617 137.403 127.192 137.686 127.858C137.968 128.504 138.109 129.201 138.109 129.947ZM157 131.552C157 132.42 156.879 133.298 156.637 134.186C156.415 135.074 156.041 135.921 155.517 136.729C155.012 137.516 154.356 138.252 153.549 138.938C152.742 139.604 151.763 140.16 150.612 140.604C150.511 140.644 150.41 140.674 150.31 140.694C150.229 140.715 150.138 140.725 150.037 140.725C149.573 140.725 149.189 140.563 148.887 140.24C148.584 139.897 148.433 139.524 148.433 139.12C148.433 138.797 148.523 138.505 148.705 138.242C148.907 137.96 149.169 137.758 149.492 137.637C150.4 137.294 151.127 136.87 151.672 136.365C152.237 135.84 152.691 135.285 153.034 134.7C152.873 134.741 152.721 134.771 152.58 134.791C152.459 134.791 152.318 134.791 152.156 134.791C151.51 134.791 150.905 134.67 150.34 134.428C149.775 134.186 149.28 133.853 148.856 133.429C148.433 133.005 148.1 132.51 147.857 131.945C147.615 131.38 147.494 130.775 147.494 130.129C147.494 129.503 147.615 128.908 147.857 128.343C148.1 127.778 148.433 127.293 148.856 126.89C149.28 126.466 149.775 126.133 150.34 125.891C150.905 125.648 151.51 125.527 152.156 125.527C152.964 125.527 153.67 125.689 154.275 126.012C154.901 126.335 155.406 126.779 155.789 127.344C156.193 127.889 156.495 128.524 156.697 129.251C156.899 129.978 157 130.744 157 131.552ZM192.48 160.372C192.48 161.522 192.279 162.582 191.875 163.551C191.471 164.499 190.926 165.367 190.24 166.154C189.554 166.921 188.757 167.597 187.849 168.183C186.961 168.748 186.012 169.222 185.003 169.605C184.014 170.009 183.005 170.302 181.976 170.483C180.946 170.685 179.957 170.786 179.009 170.786C176.446 170.786 174.034 170.403 171.773 169.636C169.513 168.889 167.465 167.729 165.628 166.154C165.628 166.497 165.628 166.84 165.628 167.184C165.628 167.507 165.648 167.819 165.688 168.122V168.243C165.688 168.647 165.547 169.01 165.265 169.333C165.002 169.656 164.669 169.817 164.266 169.817C163.801 169.817 163.398 169.676 163.055 169.394C162.732 169.131 162.55 168.798 162.51 168.395C162.469 167.991 162.449 167.587 162.449 167.184C162.449 166.76 162.449 166.336 162.449 165.912C162.449 165.165 162.459 164.429 162.479 163.702C162.52 162.976 162.56 162.33 162.601 161.765C162.641 161.179 162.671 160.705 162.691 160.342C162.732 159.958 162.762 159.746 162.782 159.706C162.823 159.302 162.984 158.969 163.267 158.707C163.569 158.424 163.923 158.283 164.326 158.283C164.831 158.283 165.224 158.445 165.507 158.768C165.789 159.09 165.931 159.444 165.931 159.827V160.009C165.91 160.17 165.89 160.352 165.87 160.554C165.85 160.715 165.83 160.917 165.81 161.159C165.789 161.401 165.769 161.664 165.749 161.946C167.586 163.904 169.604 165.337 171.804 166.245C174.024 167.133 176.425 167.577 179.009 167.577C179.312 167.577 179.705 167.557 180.189 167.517C180.674 167.476 181.178 167.416 181.703 167.335C182.248 167.234 182.793 167.113 183.338 166.972C183.883 166.81 184.367 166.618 184.791 166.396C185.235 166.154 185.588 165.872 185.851 165.549C186.133 165.226 186.274 164.842 186.274 164.398C186.274 163.954 186.073 163.561 185.669 163.218C185.285 162.854 184.791 162.532 184.186 162.249C183.58 161.966 182.904 161.724 182.157 161.522C181.431 161.321 180.714 161.149 180.008 161.008C179.322 160.867 178.696 160.756 178.131 160.675C177.586 160.594 177.182 160.534 176.92 160.493C175.184 160.312 173.469 159.979 171.773 159.494C170.098 158.99 168.585 158.303 167.232 157.436C165.88 156.568 164.79 155.498 163.963 154.227C163.135 152.955 162.722 151.451 162.722 149.716C162.722 147.94 163.085 146.345 163.812 144.933C164.538 143.5 165.487 142.289 166.657 141.3C167.848 140.311 169.2 139.554 170.714 139.029C172.248 138.505 173.812 138.242 175.406 138.242C177.505 138.242 179.493 138.505 181.37 139.029C183.267 139.534 185.003 140.331 186.577 141.421C186.759 140.977 186.971 140.533 187.213 140.089C187.455 139.625 187.697 139.181 187.939 138.757C188.101 138.494 188.303 138.303 188.545 138.182C188.807 138.061 189.06 138 189.302 138C189.766 138 190.149 138.161 190.452 138.484C190.755 138.787 190.906 139.14 190.906 139.544C190.906 139.867 190.826 140.139 190.664 140.361C189.897 141.734 189.251 143.126 188.727 144.539C188.222 145.932 187.879 147.344 187.697 148.777C187.637 149.161 187.455 149.484 187.152 149.746C186.85 150.008 186.496 150.14 186.093 150.14C185.649 150.14 185.275 149.978 184.973 149.655C184.67 149.312 184.519 148.939 184.519 148.535V148.293C184.741 147.042 185.033 145.78 185.396 144.509C183.943 143.358 182.359 142.561 180.644 142.117C178.928 141.653 177.182 141.421 175.406 141.421C174.801 141.421 174.165 141.492 173.499 141.633C172.833 141.754 172.207 141.966 171.622 142.269C171.057 142.551 170.583 142.935 170.199 143.419C169.836 143.903 169.654 144.499 169.654 145.205C169.654 145.831 169.856 146.386 170.26 146.87C170.663 147.334 171.178 147.748 171.804 148.111C172.429 148.475 173.126 148.787 173.893 149.05C174.68 149.312 175.447 149.534 176.193 149.716C176.96 149.897 177.667 150.049 178.312 150.17C178.979 150.291 179.503 150.392 179.887 150.473C181.299 150.755 182.743 151.129 184.216 151.593C185.709 152.037 187.062 152.642 188.272 153.409C189.504 154.156 190.513 155.094 191.3 156.225C192.087 157.355 192.48 158.737 192.48 160.372ZM36.0488 221.947C36.0488 219.256 35.5918 216.869 34.6777 214.787C33.7637 212.688 32.5026 210.945 30.8945 209.557C29.3034 208.152 27.4076 207.119 25.207 206.459C23.0234 205.782 20.6621 205.52 18.123 205.672V238.4C19.748 238.451 21.3223 238.307 22.8457 237.969C24.3691 237.63 25.791 237.122 27.1113 236.445C28.4486 235.751 29.6589 234.913 30.7422 233.932C31.8424 232.95 32.7819 231.841 33.5605 230.605C34.3561 229.37 34.9655 228.024 35.3887 226.568C35.8288 225.113 36.0488 223.572 36.0488 221.947ZM38.7148 221.947C38.7148 224.046 38.4355 225.976 37.877 227.736C37.3353 229.497 36.5736 231.088 35.5918 232.51C34.61 233.932 33.4336 235.176 32.0625 236.242C30.6914 237.309 29.1764 238.206 27.5176 238.934C25.8757 239.645 24.1237 240.178 22.2617 240.533C20.3997 240.906 18.4785 241.092 16.498 241.092C14.8392 241.092 13.3327 241.007 11.9785 240.838C10.6413 240.669 9.48177 240.482 8.5 240.279C7.53516 240.076 6.77344 239.89 6.21484 239.721C5.67318 239.535 5.37695 239.433 5.32617 239.416C5.07227 239.314 4.86068 239.154 4.69141 238.934C4.52214 238.697 4.4375 238.443 4.4375 238.172C4.4375 237.783 4.58138 237.461 4.86914 237.207C5.1569 236.953 5.47005 236.826 5.80859 236.826C5.89323 236.826 5.9694 236.835 6.03711 236.852C6.10482 236.868 6.18099 236.894 6.26562 236.928C6.48568 237.012 6.74805 237.097 7.05273 237.182C7.54362 237.334 8.27148 237.512 9.23633 237.715V206.611C8.11914 206.848 7.26432 207.051 6.67188 207.221C6.31641 207.322 6.00326 207.415 5.73242 207.5C5.64779 207.534 5.57161 207.559 5.50391 207.576C5.4362 207.593 5.36003 207.602 5.27539 207.602C4.88607 207.602 4.57292 207.466 4.33594 207.195C4.09896 206.908 3.98047 206.594 3.98047 206.256C3.98047 205.968 4.05664 205.714 4.20898 205.494C4.36133 205.257 4.58138 205.096 4.86914 205.012C4.93685 204.995 5.30924 204.885 5.98633 204.682C6.68034 204.462 7.60286 204.233 8.75391 203.996C9.92188 203.742 11.2845 203.522 12.8418 203.336C14.3991 203.133 16.0749 203.031 17.8691 203.031C20.8483 203.031 23.6074 203.429 26.1465 204.225C28.6855 205.003 30.8861 206.18 32.748 207.754C34.61 209.328 36.0658 211.3 37.1152 213.67C38.1816 216.04 38.7148 218.799 38.7148 221.947ZM65.9082 226.594V226.162C65.9082 224.893 65.7728 223.716 65.502 222.633C65.2311 221.549 64.7995 220.593 64.207 219.764C63.6315 218.917 62.8867 218.223 61.9727 217.682C61.0586 217.14 59.9583 216.776 58.6719 216.59C57.7747 216.691 56.9961 216.937 56.3359 217.326C55.6758 217.715 55.1087 218.198 54.6348 218.773C54.1777 219.332 53.7969 219.967 53.4922 220.678C53.1875 221.389 52.9421 222.125 52.7559 222.887C52.5866 223.632 52.4596 224.385 52.375 225.146C52.2904 225.891 52.2396 226.594 52.2227 227.254C52.4935 227.339 52.832 227.432 53.2383 227.533C53.6615 227.635 54.1354 227.736 54.6602 227.838C55.1849 227.923 55.752 227.999 56.3613 228.066C56.9876 228.117 57.6393 228.143 58.3164 228.143C59.7552 228.143 61.1009 228.007 62.3535 227.736C63.623 227.465 64.8079 227.085 65.9082 226.594ZM68.498 227.584C68.4473 228.024 68.2103 228.405 67.7871 228.727C67.3639 229.048 66.8307 229.336 66.1875 229.59C65.5443 229.827 64.8333 230.03 64.0547 230.199C63.293 230.352 62.5397 230.479 61.7949 230.58C61.0501 230.682 60.3646 230.758 59.7383 230.809C59.112 230.842 58.6211 230.859 58.2656 230.859C57.0299 230.859 55.8874 230.775 54.8379 230.605C53.8053 230.436 52.9505 230.258 52.2734 230.072C52.375 231.122 52.5697 232.154 52.8574 233.17C53.1452 234.186 53.5599 235.1 54.1016 235.912C54.6432 236.708 55.3203 237.359 56.1328 237.867C56.9453 238.358 57.9271 238.604 59.0781 238.604C59.5013 238.604 59.9837 238.553 60.5254 238.451C61.0671 238.333 61.6003 238.172 62.125 237.969C62.6497 237.749 63.1322 237.495 63.5723 237.207C64.0124 236.902 64.3594 236.564 64.6133 236.191C64.901 235.853 65.248 235.684 65.6543 235.684C66.0098 235.684 66.3229 235.827 66.5938 236.115C66.8646 236.386 67 236.691 67 237.029C67 237.385 66.89 237.664 66.6699 237.867C66.2637 238.493 65.6966 239.027 64.9688 239.467C64.2409 239.907 63.4538 240.262 62.6074 240.533C61.7611 240.821 60.9062 241.024 60.043 241.143C59.1797 241.278 58.3926 241.346 57.6816 241.346C55.6504 241.346 53.763 240.982 52.0195 240.254C50.276 239.543 48.7611 238.561 47.4746 237.309C46.1882 236.056 45.1725 234.583 44.4277 232.891C43.6999 231.198 43.3359 229.37 43.3359 227.406C43.3359 225.257 43.6576 223.344 44.3008 221.668C44.944 219.975 45.8581 218.553 47.043 217.402C48.2279 216.234 49.6667 215.354 51.3594 214.762C53.0521 214.152 54.9564 213.848 57.0723 213.848C59.0697 213.932 60.7878 214.271 62.2266 214.863C63.6823 215.456 64.8757 216.277 65.8066 217.326C66.7376 218.376 67.4232 219.645 67.8633 221.135C68.3203 222.607 68.5488 224.266 68.5488 226.111C68.5488 226.535 68.5404 226.873 68.5234 227.127C68.5065 227.364 68.498 227.516 68.498 227.584ZM98.1797 232.764C98.1797 233.729 98.0104 234.617 97.6719 235.43C97.3333 236.225 96.8763 236.953 96.3008 237.613C95.7253 238.257 95.0566 238.824 94.2949 239.314C93.5501 239.788 92.7546 240.186 91.9082 240.508C91.0788 240.846 90.2324 241.092 89.3691 241.244C88.5059 241.413 87.6764 241.498 86.8809 241.498C84.7311 241.498 82.7083 241.176 80.8125 240.533C78.9167 239.907 77.1986 238.934 75.6582 237.613C75.6582 237.901 75.6582 238.189 75.6582 238.477C75.6582 238.747 75.6751 239.01 75.709 239.264V239.365C75.709 239.704 75.5905 240.008 75.3535 240.279C75.1335 240.55 74.8542 240.686 74.5156 240.686C74.1263 240.686 73.7878 240.567 73.5 240.33C73.2292 240.11 73.0768 239.831 73.043 239.492C73.0091 239.154 72.9922 238.815 72.9922 238.477C72.9922 238.121 72.9922 237.766 72.9922 237.41C72.9922 236.784 73.0007 236.166 73.0176 235.557C73.0514 234.947 73.0853 234.406 73.1191 233.932C73.153 233.441 73.1784 233.043 73.1953 232.738C73.2292 232.417 73.2546 232.239 73.2715 232.205C73.3053 231.867 73.4408 231.587 73.6777 231.367C73.9316 231.13 74.2279 231.012 74.5664 231.012C74.9896 231.012 75.3197 231.147 75.5566 231.418C75.7936 231.689 75.9121 231.985 75.9121 232.307V232.459C75.8952 232.594 75.8783 232.747 75.8613 232.916C75.8444 233.051 75.8275 233.221 75.8105 233.424C75.7936 233.627 75.7767 233.847 75.7598 234.084C77.3001 235.726 78.9928 236.928 80.8379 237.689C82.6999 238.434 84.7142 238.807 86.8809 238.807C87.1348 238.807 87.4648 238.79 87.8711 238.756C88.2773 238.722 88.7005 238.671 89.1406 238.604C89.5977 238.519 90.0547 238.417 90.5117 238.299C90.9688 238.163 91.375 238.003 91.7305 237.816C92.1029 237.613 92.3991 237.376 92.6191 237.105C92.8561 236.835 92.9746 236.513 92.9746 236.141C92.9746 235.768 92.8053 235.438 92.4668 235.15C92.1452 234.846 91.7305 234.575 91.2227 234.338C90.7148 234.101 90.1478 233.898 89.5215 233.729C88.9121 233.559 88.3112 233.415 87.7188 233.297C87.1432 233.178 86.6185 233.085 86.1445 233.018C85.6875 232.95 85.349 232.899 85.1289 232.865C83.6732 232.713 82.2344 232.434 80.8125 232.027C79.4076 231.604 78.138 231.029 77.0039 230.301C75.8698 229.573 74.9557 228.676 74.2617 227.609C73.5677 226.543 73.2207 225.282 73.2207 223.826C73.2207 222.337 73.5254 220.999 74.1348 219.814C74.7441 218.613 75.5397 217.597 76.5215 216.768C77.5202 215.938 78.6543 215.303 79.9238 214.863C81.2103 214.423 82.5221 214.203 83.8594 214.203C85.6198 214.203 87.2871 214.423 88.8613 214.863C90.4525 215.286 91.9082 215.955 93.2285 216.869C93.3809 216.497 93.5586 216.124 93.7617 215.752C93.9648 215.363 94.168 214.99 94.3711 214.635C94.5065 214.415 94.6758 214.254 94.8789 214.152C95.099 214.051 95.3105 214 95.5137 214C95.903 214 96.2246 214.135 96.4785 214.406C96.7324 214.66 96.8594 214.956 96.8594 215.295C96.8594 215.566 96.7917 215.794 96.6562 215.98C96.013 217.132 95.4714 218.299 95.0312 219.484C94.6081 220.652 94.3203 221.837 94.168 223.039C94.1172 223.361 93.9648 223.632 93.7109 223.852C93.457 224.072 93.1608 224.182 92.8223 224.182C92.4499 224.182 92.1367 224.046 91.8828 223.775C91.6289 223.488 91.502 223.174 91.502 222.836V222.633C91.6882 221.583 91.9336 220.525 92.2383 219.459C91.0195 218.494 89.6908 217.826 88.252 217.453C86.8132 217.064 85.349 216.869 83.8594 216.869C83.3516 216.869 82.8184 216.928 82.2598 217.047C81.7012 217.148 81.1764 217.326 80.6855 217.58C80.2116 217.817 79.8138 218.139 79.4922 218.545C79.1875 218.951 79.0352 219.451 79.0352 220.043C79.0352 220.568 79.2044 221.033 79.543 221.439C79.8815 221.829 80.3132 222.176 80.8379 222.48C81.3626 222.785 81.9466 223.048 82.5898 223.268C83.25 223.488 83.8932 223.674 84.5195 223.826C85.1628 223.979 85.7552 224.105 86.2969 224.207C86.8555 224.309 87.2956 224.393 87.6172 224.461C88.8021 224.698 90.0124 225.011 91.248 225.4C92.5007 225.773 93.6348 226.281 94.6504 226.924C95.6829 227.55 96.5293 228.337 97.1895 229.285C97.8496 230.233 98.1797 231.393 98.1797 232.764ZM118.568 240.635C118.535 240.635 118.492 240.626 118.441 240.609C118.408 240.592 118.365 240.584 118.314 240.584C116.943 240.313 115.64 240.118 114.404 240C113.169 239.865 111.941 239.797 110.723 239.797C109.487 239.797 108.26 239.865 107.041 240C105.822 240.118 104.536 240.313 103.182 240.584C103.131 240.584 103.089 240.592 103.055 240.609C103.021 240.626 102.979 240.635 102.928 240.635C102.538 240.635 102.217 240.491 101.963 240.203C101.726 239.915 101.607 239.602 101.607 239.264C101.607 238.959 101.701 238.68 101.887 238.426C102.09 238.172 102.344 238.02 102.648 237.969C103.241 237.833 103.833 237.732 104.426 237.664C105.035 237.579 105.628 237.495 106.203 237.41V217.961C105.137 217.91 104.24 217.842 103.512 217.758C102.784 217.673 102.378 217.631 102.293 217.631C101.954 217.58 101.675 217.428 101.455 217.174C101.252 216.92 101.15 216.624 101.15 216.285C101.15 215.862 101.303 215.54 101.607 215.32C101.912 215.1 102.208 214.99 102.496 214.99H102.648C102.665 214.99 102.86 215.016 103.232 215.066C103.605 215.1 104.087 215.143 104.68 215.193C105.289 215.244 105.975 215.295 106.736 215.346C107.498 215.38 108.285 215.396 109.098 215.396C109.91 215.396 110.706 215.371 111.484 215.32C112.263 215.253 112.974 215.143 113.617 214.99H113.896C114.286 214.99 114.607 215.126 114.861 215.396C115.115 215.65 115.242 215.947 115.242 216.285L115.191 237.41C115.784 237.495 116.376 237.579 116.969 237.664C117.578 237.732 118.196 237.833 118.822 237.969C119.144 238.02 119.406 238.172 119.609 238.426C119.812 238.68 119.914 238.959 119.914 239.264C119.914 239.653 119.77 239.975 119.482 240.229C119.195 240.499 118.89 240.635 118.568 240.635ZM114.887 207.246C114.887 207.872 114.768 208.465 114.531 209.023C114.294 209.565 113.964 210.039 113.541 210.445C113.135 210.852 112.652 211.173 112.094 211.41C111.552 211.647 110.968 211.766 110.342 211.766C109.715 211.766 109.123 211.647 108.564 211.41C108.023 211.173 107.549 210.852 107.143 210.445C106.736 210.039 106.415 209.565 106.178 209.023C105.941 208.465 105.822 207.872 105.822 207.246C105.822 206.62 105.941 206.036 106.178 205.494C106.415 204.936 106.736 204.453 107.143 204.047C107.549 203.641 108.023 203.319 108.564 203.082C109.123 202.845 109.715 202.727 110.342 202.727C110.968 202.727 111.552 202.845 112.094 203.082C112.652 203.319 113.135 203.641 113.541 204.047C113.964 204.453 114.294 204.936 114.531 205.494C114.768 206.036 114.887 206.62 114.887 207.246ZM141.598 225.705C141.598 224.74 141.598 223.835 141.598 222.988C141.598 222.125 141.581 221.312 141.547 220.551C141.462 220.348 141.293 220.018 141.039 219.561C140.802 219.087 140.421 218.613 139.896 218.139C139.389 217.648 138.712 217.216 137.865 216.844C137.019 216.454 135.952 216.234 134.666 216.184C132.956 216.184 131.501 216.514 130.299 217.174C129.097 217.817 128.107 218.697 127.328 219.814C126.549 220.932 125.982 222.235 125.627 223.725C125.271 225.214 125.094 226.788 125.094 228.447C125.111 229.683 125.28 230.876 125.602 232.027C125.94 233.178 126.431 234.202 127.074 235.1C127.734 235.98 128.53 236.691 129.461 237.232C130.409 237.757 131.501 238.02 132.736 238.02C133.633 238.02 134.471 237.816 135.25 237.41C136.046 236.987 136.773 236.437 137.434 235.76C138.094 235.066 138.678 234.287 139.186 233.424C139.71 232.561 140.15 231.672 140.506 230.758C140.861 229.844 141.132 228.947 141.318 228.066C141.505 227.186 141.598 226.399 141.598 225.705ZM153.709 215.396C153.709 215.718 153.599 216.006 153.379 216.26C153.176 216.497 152.922 216.641 152.617 216.691C152.296 216.759 151.957 216.818 151.602 216.869C151.246 216.903 150.874 216.937 150.484 216.971C150.484 217.495 150.493 218.223 150.51 219.154C150.527 220.068 150.535 221.16 150.535 222.43C150.535 223.479 150.527 224.613 150.51 225.832C150.493 227.034 150.467 228.295 150.434 229.615C150.4 230.936 150.349 232.298 150.281 233.703C150.23 235.091 150.154 236.496 150.053 237.918C149.917 239.983 149.486 241.955 148.758 243.834C148.03 245.713 147.048 247.363 145.812 248.785C144.577 250.207 143.104 251.341 141.395 252.188C139.685 253.034 137.789 253.457 135.707 253.457C134.285 253.457 132.956 253.22 131.721 252.746C130.502 252.272 129.444 251.62 128.547 250.791C127.65 249.962 126.947 248.98 126.439 247.846C125.932 246.712 125.678 245.484 125.678 244.164V244.113C125.678 243.741 125.805 243.419 126.059 243.148C126.312 242.895 126.634 242.768 127.023 242.768C127.396 242.768 127.701 242.895 127.938 243.148C128.191 243.419 128.318 243.741 128.318 244.113C128.318 245.163 128.521 246.094 128.928 246.906C129.334 247.736 129.876 248.438 130.553 249.014C131.247 249.606 132.034 250.055 132.914 250.359C133.794 250.664 134.708 250.816 135.656 250.816C136.57 250.816 137.366 250.512 138.043 249.902C138.72 249.293 139.296 248.345 139.77 247.059C140.243 245.789 140.616 244.156 140.887 242.158C141.174 240.178 141.378 237.808 141.496 235.049C141.107 235.844 140.616 236.589 140.023 237.283C139.431 237.96 138.754 238.553 137.992 239.061C137.247 239.568 136.435 239.966 135.555 240.254C134.691 240.542 133.777 240.686 132.812 240.686C131.188 240.686 129.74 240.355 128.471 239.695C127.201 239.035 126.118 238.146 125.221 237.029C124.34 235.912 123.663 234.617 123.189 233.145C122.715 231.672 122.47 230.123 122.453 228.498C122.453 226.467 122.707 224.546 123.215 222.734C123.723 220.906 124.484 219.315 125.5 217.961C126.533 216.607 127.819 215.532 129.359 214.736C130.9 213.941 132.702 213.543 134.768 213.543C136.257 213.594 137.535 213.839 138.602 214.279C139.685 214.719 140.607 215.253 141.369 215.879L141.318 215.6V215.549C141.318 215.193 141.462 214.88 141.75 214.609C142.038 214.339 142.351 214.203 142.689 214.203H142.74C142.757 214.203 142.901 214.212 143.172 214.229C143.443 214.245 143.79 214.262 144.213 214.279C144.653 214.296 145.152 214.313 145.711 214.33C146.286 214.347 146.87 214.355 147.463 214.355C148.326 214.355 149.173 214.339 150.002 214.305C150.848 214.271 151.559 214.203 152.135 214.102C152.169 214.068 152.202 214.051 152.236 214.051C152.287 214.051 152.329 214.051 152.363 214.051C152.719 214.051 153.032 214.195 153.303 214.482C153.574 214.753 153.709 215.058 153.709 215.396ZM188.926 238.857C188.892 239.196 188.74 239.484 188.469 239.721C188.198 239.941 187.893 240.051 187.555 240.051H187.453C186.641 239.966 185.854 239.907 185.092 239.873C184.347 239.822 183.611 239.797 182.883 239.797C181.816 239.797 180.792 239.848 179.811 239.949C178.846 240.034 177.898 240.152 176.967 240.305C176.933 240.305 176.891 240.313 176.84 240.33C176.806 240.347 176.772 240.355 176.738 240.355C176.383 240.355 176.07 240.22 175.799 239.949C175.528 239.661 175.393 239.348 175.393 239.01C175.393 238.705 175.494 238.426 175.697 238.172C175.917 237.918 176.18 237.766 176.484 237.715C177.195 237.579 177.906 237.478 178.617 237.41C179.345 237.326 180.09 237.249 180.852 237.182C181.004 236.657 181.165 235.946 181.334 235.049C181.503 234.152 181.656 233.187 181.791 232.154C181.943 231.122 182.062 230.081 182.146 229.031C182.248 227.982 182.299 227.042 182.299 226.213C182.299 225.35 182.248 224.41 182.146 223.395C182.062 222.379 181.85 221.431 181.512 220.551C181.19 219.654 180.716 218.909 180.09 218.316C179.48 217.724 178.66 217.428 177.627 217.428C176.459 217.428 175.376 217.715 174.377 218.291C173.378 218.867 172.515 219.603 171.787 220.5C171.076 221.38 170.509 222.354 170.086 223.42C169.68 224.486 169.477 225.51 169.477 226.492V226.543L169.426 237.715C169.73 237.749 170.027 237.783 170.314 237.816C170.602 237.833 170.89 237.867 171.178 237.918C171.516 237.952 171.796 238.096 172.016 238.35C172.253 238.587 172.371 238.874 172.371 239.213C172.371 239.585 172.227 239.907 171.939 240.178C171.669 240.449 171.364 240.584 171.025 240.584C170.958 240.584 170.907 240.559 170.873 240.508C169.857 240.406 168.816 240.305 167.75 240.203C166.701 240.102 165.592 240.051 164.424 240.051C163.374 240.051 162.266 240.102 161.098 240.203C159.947 240.322 158.711 240.499 157.391 240.736C157.323 240.77 157.238 240.787 157.137 240.787C156.747 240.787 156.434 240.643 156.197 240.355C155.96 240.068 155.842 239.755 155.842 239.416C155.842 239.111 155.935 238.832 156.121 238.578C156.307 238.324 156.561 238.172 156.883 238.121C157.509 237.986 158.11 237.884 158.686 237.816C159.261 237.732 159.837 237.664 160.412 237.613V218.215C159.346 218.164 158.449 218.105 157.721 218.037C157.01 217.952 156.612 217.893 156.527 217.859C156.189 217.826 155.91 217.682 155.689 217.428C155.486 217.174 155.385 216.878 155.385 216.539C155.385 216.133 155.529 215.811 155.816 215.574C156.104 215.32 156.409 215.193 156.73 215.193C156.798 215.193 156.849 215.21 156.883 215.244C156.9 215.244 157.094 215.261 157.467 215.295C157.839 215.329 158.322 215.371 158.914 215.422C159.523 215.473 160.209 215.515 160.971 215.549C161.732 215.583 162.52 215.6 163.332 215.6C164.145 215.6 164.94 215.583 165.719 215.549C166.497 215.498 167.208 215.396 167.852 215.244C167.885 215.244 167.919 215.236 167.953 215.219C168.004 215.202 168.055 215.193 168.105 215.193C168.495 215.193 168.816 215.337 169.07 215.625C169.341 215.896 169.477 216.201 169.477 216.539V219.154C170.458 217.715 171.626 216.632 172.98 215.904C174.352 215.16 175.9 214.787 177.627 214.787C178.643 214.787 179.523 214.965 180.268 215.32C181.029 215.659 181.681 216.124 182.223 216.717C182.781 217.309 183.23 217.995 183.568 218.773C183.924 219.535 184.203 220.339 184.406 221.186C184.626 222.032 184.77 222.895 184.838 223.775C184.923 224.639 184.965 225.451 184.965 226.213C184.965 227.059 184.923 227.99 184.838 229.006C184.753 230.005 184.643 231.003 184.508 232.002C184.389 233.001 184.245 233.949 184.076 234.846C183.924 235.743 183.771 236.505 183.619 237.131C184.262 237.165 184.923 237.199 185.6 237.232C186.294 237.266 186.996 237.326 187.707 237.41C188.096 237.444 188.393 237.613 188.596 237.918C188.816 238.206 188.926 238.519 188.926 238.857Z" fill="black"/>
<rect opacity="0.75" x="4.5" y="112" width="37" height="14" rx="2" fill="#FFD700"/>
<circle cx="7.5" cy="114.5" r="0.5" fill="white"/>
<circle cx="11.5" cy="114.5" r="0.5" fill="white"/>
<circle cx="15.5" cy="114.5" r="0.5" fill="white"/>
<circle cx="19.5" cy="114.5" r="0.5" fill="white"/>
<circle cx="27.5" cy="114.5" r="0.5" fill="white"/>
<circle cx="31.5" cy="114.5" r="0.5" fill="white"/>
<circle cx="35.5" cy="114.5" r="0.5" fill="white"/>
<circle cx="39.5" cy="114.5" r="0.5" fill="white"/>
<circle cx="23.5" cy="114.5" r="0.5" fill="white"/>
<circle cx="9.5" cy="123.5" r="0.5" fill="white"/>
<circle cx="13.5" cy="123.5" r="0.5" fill="white"/>
<circle cx="17.5" cy="123.5" r="0.5" fill="white"/>
<circle cx="21.5" cy="123.5" r="0.5" fill="white"/>
<circle cx="29.5" cy="123.5" r="0.5" fill="white"/>
<circle cx="33.5" cy="123.5" r="0.5" fill="white"/>
<circle cx="37.5" cy="123.5" r="0.5" fill="white"/>
<circle cx="25.5" cy="123.5" r="0.5" fill="white"/>
<circle cx="9.5" cy="117.5" r="0.5" fill="white"/>
<circle cx="7.5" cy="120.5" r="0.5" fill="white"/>
<circle cx="11.5" cy="120.5" r="0.5" fill="white"/>
<circle cx="15.5" cy="120.5" r="0.5" fill="white"/>
<circle cx="19.5" cy="120.5" r="0.5" fill="white"/>
<circle cx="27.5" cy="120.5" r="0.5" fill="white"/>
<circle cx="31.5" cy="120.5" r="0.5" fill="white"/>
<circle cx="35.5" cy="120.5" r="0.5" fill="white"/>
<circle cx="39.5" cy="120.5" r="0.5" fill="white"/>
<circle cx="23.5" cy="120.5" r="0.5" fill="white"/>
<circle cx="13.5" cy="117.5" r="0.5" fill="white"/>
<circle cx="17.5" cy="117.5" r="0.5" fill="white"/>
<circle cx="21.5" cy="117.5" r="0.5" fill="white"/>
<circle cx="29.5" cy="117.5" r="0.5" fill="white"/>
<circle cx="33.5" cy="117.5" r="0.5" fill="white"/>
<circle cx="37.5" cy="117.5" r="0.5" fill="white"/>
<circle cx="25.5" cy="117.5" r="0.5" fill="white"/>
</svg>
